<?xml version="1.0" encoding="UTF-8" standalone="no"?>
<!DOCTYPE svg PUBLIC "-//W3C//DTD SVG 1.1//EN" "http://www.w3.org/Graphics/SVG/1.1/DTD/svg11.dtd">
<svg width="100%" height="100%" viewBox="0 0 227 286" version="1.1" xmlns="http://www.w3.org/2000/svg" xmlns:xlink="http://www.w3.org/1999/xlink" xml:space="preserve" xmlns:serif="http://www.serif.com/" style="fill-rule:evenodd;clip-rule:evenodd;stroke-linejoin:round;stroke-miterlimit:2;">
    <g id="Artboard1" transform="matrix(1,0,0,1,-414.485,-182.003)">
        <path d="M510.603,467.603L414.485,467.603L414.485,182.003L536.885,182.003C550.485,182.003 561.885,183.203 573.085,185.603C584.285,188.003 593.885,191.936 601.885,197.403C609.885,202.87 616.085,210.136 620.485,219.203C624.885,228.27 627.085,239.47 627.085,252.803C627.085,267.203 623.818,279.203 617.285,288.803C610.752,298.403 601.085,306.27 588.285,312.403C605.885,317.47 619.018,326.336 627.685,339.003C636.352,351.67 640.685,366.936 640.685,384.803C640.685,399.203 637.885,411.67 632.285,422.203C626.685,432.736 619.152,441.336 609.685,448.003C600.218,454.67 589.418,459.603 577.285,462.803C565.152,466.003 553.685,467.603 540.885,467.603L528.685,467.603L528.685,451.049C528.685,427.146 560.375,408.956 560.375,408.956C564.409,411.033 568.984,412.205 573.831,412.205C590.095,412.205 603.298,399.001 603.298,382.738C603.298,366.474 590.095,353.271 573.831,353.271C557.568,353.271 544.364,366.474 544.364,382.738C544.364,387.585 545.536,392.16 547.613,396.194L528.685,415.122L528.685,279.655C540.54,275.84 549.129,264.714 549.129,251.597C549.129,235.334 535.925,222.13 519.661,222.13C503.398,222.13 490.194,235.334 490.194,251.597C490.194,264.714 498.782,275.84 510.637,279.655L510.637,355.548L486.957,332.219C489.026,328.19 490.194,323.624 490.194,318.787C490.194,302.524 476.99,289.32 460.726,289.32C444.463,289.32 431.259,302.524 431.259,318.787C431.259,335.051 444.463,348.255 460.726,348.255C465.583,348.255 470.167,347.077 474.207,344.993C474.207,344.993 510.479,372.784 510.479,398.052C510.479,416.89 510.557,449.696 510.603,467.603Z" style="fill:rgb(159,0,0);"/>
    </g>
</svg>